<svg xmlns="http://www.w3.org/2000/svg" viewBox="0 0 1200 630" width="1200" height="630">
  <defs>
    <linearGradient id="bg" x1="0" x2="1" y1="0" y2="1">
      <stop offset="0%" stop-color="#04060B"/>
      <stop offset="100%" stop-color="#0B1020"/>
    </linearGradient>
    <linearGradient id="acc" x1="0" x2="1" y1="0" y2="1">
      <stop offset="0%" stop-color="#22D3EE"/>
      <stop offset="100%" stop-color="#A855F7"/>
    </linearGradient>
    <radialGradient id="glow" cx="50%" cy="50%" r="50%">
      <stop offset="0%" stop-color="#7C3AED" stop-opacity="0.5"/>
      <stop offset="100%" stop-color="#7C3AED" stop-opacity="0"/>
    </radialGradient>
  </defs>
  <rect width="1200" height="630" fill="url(#bg)"/>
  <circle cx="950" cy="320" r="320" fill="url(#glow)"/>
  <g transform="translate(80,200)">
    <text x="0" y="0" font-family="Inter, sans-serif" font-size="28" font-weight="600" fill="#22D3EE" letter-spacing="6">BOTMATE · MÉXICO</text>
    <text x="0" y="120" font-family="Space Grotesk, sans-serif" font-size="110" font-weight="800" fill="#FFFFFF">Robots que</text>
    <text x="0" y="240" font-family="Space Grotesk, sans-serif" font-size="110" font-weight="800" fill="url(#acc)">transforman tu</text>
    <text x="0" y="360" font-family="Space Grotesk, sans-serif" font-size="110" font-weight="800" fill="#FFFFFF">negocio.</text>
  </g>
  <g transform="translate(820,160)">
    <rect x="0" y="0" width="240" height="280" rx="50" fill="#0B1020" stroke="url(#acc)" stroke-width="3"/>
    <rect x="28" y="28" width="184" height="100" rx="24" fill="#0F172A"/>
    <circle cx="86" cy="78" r="14" fill="url(#acc)"/>
    <circle cx="154" cy="78" r="14" fill="url(#acc)"/>
    <rect x="18" y="160" width="204" height="12" rx="4" fill="rgba(255,255,255,0.08)"/>
    <rect x="18" y="190" width="204" height="12" rx="4" fill="rgba(255,255,255,0.08)"/>
    <rect x="18" y="220" width="204" height="12" rx="4" fill="rgba(255,255,255,0.08)"/>
  </g>
</svg>
