<svg xmlns="http://www.w3.org/2000/svg" viewBox="0 0 1200 630" width="1200" height="630">
  <defs>
    <linearGradient id="bg" x1="0" x2="1" y1="0" y2="1">
      <stop offset="0%" stop-color="#05070F"/>
      <stop offset="100%" stop-color="#0E174D"/>
    </linearGradient>
    <linearGradient id="acc" x1="0" x2="1" y1="0" y2="0">
      <stop offset="0%" stop-color="#5B73FB"/>
      <stop offset="100%" stop-color="#3D5AFE"/>
    </linearGradient>
    <radialGradient id="glow" cx="50%" cy="50%" r="50%">
      <stop offset="0%" stop-color="#3D5AFE" stop-opacity="0.55"/>
      <stop offset="100%" stop-color="#3D5AFE" stop-opacity="0"/>
    </radialGradient>
  </defs>
  <rect width="1200" height="630" fill="url(#bg)"/>
  <circle cx="980" cy="320" r="360" fill="url(#glow)"/>
  <g transform="translate(80,200)">
    <text x="0" y="0" font-family="Inter, sans-serif" font-size="28" font-weight="600" fill="#5B73FB" letter-spacing="6">BOTMATE · MÉXICO</text>
    <text x="0" y="120" font-family="Space Grotesk, sans-serif" font-size="100" font-weight="800" fill="#FFFFFF">El compañero</text>
    <text x="0" y="240" font-family="Space Grotesk, sans-serif" font-size="100" font-weight="800" fill="url(#acc)">robot ideal</text>
    <text x="0" y="360" font-family="Space Grotesk, sans-serif" font-size="100" font-weight="800" fill="#FFFFFF">para tu marca.</text>
  </g>
  <g transform="translate(840,180)">
    <rect x="0" y="0" width="220" height="260" rx="46" fill="#F4F5FB" stroke="url(#acc)" stroke-width="3"/>
    <rect x="28" y="28" width="164" height="92" rx="22" fill="#1F2540"/>
    <circle cx="80" cy="74" r="14" fill="#5B73FB"/>
    <circle cx="140" cy="74" r="14" fill="#5B73FB"/>
    <rect x="18" y="150" width="184" height="14" rx="4" fill="rgba(31,37,64,0.15)"/>
    <rect x="18" y="180" width="184" height="14" rx="4" fill="rgba(31,37,64,0.15)"/>
    <rect x="18" y="210" width="184" height="14" rx="4" fill="rgba(31,37,64,0.15)"/>
  </g>
</svg>
